<svg width="45" height="71" viewBox="0 0 45 71" fill="none" xmlns="http://www.w3.org/2000/svg">
<path d="M22.5218 0L42.483 41.535H2.56049L22.5218 0Z" fill="#A3A3A3"/>
<path d="M44.1304 49.7C44.1304 61.4637 34.4559 71 22.5218 71C10.5876 71 0.913055 61.4637 0.913055 49.7C0.913055 37.9363 10.5876 28.4 22.5218 28.4C34.4559 28.4 44.1304 37.9363 44.1304 49.7Z" fill="#A3A3A3"/>
<path d="M14.4848 58.6522V55.9511L22.8413 47.2931C23.7336 46.3526 24.4692 45.5286 25.048 44.8212C25.6348 44.1057 26.0729 43.4264 26.3623 42.7833C26.6517 42.1402 26.7964 41.4569 26.7964 40.7334C26.7964 39.9134 26.6035 39.206 26.2176 38.6111C25.8318 38.0082 25.3052 37.5459 24.638 37.2244C23.9708 36.8948 23.2191 36.73 22.3831 36.73C21.4988 36.73 20.727 36.9108 20.0678 37.2726C19.4087 37.6344 18.9022 38.1448 18.5485 38.804C18.1948 39.4632 18.0179 40.235 18.0179 41.1192H14.4607C14.4607 39.616 14.8064 38.3016 15.4977 37.1761C16.1891 36.0507 17.1376 35.1785 18.3435 34.5595C19.5493 33.9324 20.92 33.6189 22.4554 33.6189C24.0069 33.6189 25.3736 33.9284 26.5553 34.5474C27.745 35.1584 28.6735 35.9944 29.3408 37.0555C30.008 38.1087 30.3416 39.2984 30.3416 40.6248C30.3416 41.5413 30.1688 42.4376 29.8231 43.3139C29.4855 44.1901 28.8946 45.1668 28.0505 46.2441C27.2064 47.3132 26.0327 48.6115 24.5295 50.1389L19.6217 55.2758V55.4567H30.7395V58.6522H14.4848Z" fill="white"/>
</svg>
