<svg width="468" height="726" viewBox="0 0 468 726" fill="none" xmlns="http://www.w3.org/2000/svg">
<path d="M458.198 283.749C454.165 278.893 448.992 275.092 443.133 272.681C437.273 270.271 430.907 269.324 424.592 269.923C390.669 272.583 357.741 282.565 328.115 299.169C298.488 315.773 272.879 338.599 253.081 366.049V268.012C280.271 263.43 304.954 249.464 322.768 228.581C340.582 207.699 350.38 181.243 350.431 153.89C350.431 99.9571 312.601 54.4048 275.588 16.9627C264.366 6.08824 249.3 0 233.611 0C217.921 0 202.855 6.08824 191.633 16.9627C154.621 54.4048 116.79 99.9571 116.79 153.89C116.841 181.243 126.64 207.699 144.453 228.581C162.267 249.464 186.95 263.43 214.141 268.012V366.049C194.342 338.599 168.733 315.773 139.106 299.169C109.48 282.565 76.5526 272.583 42.6289 269.923C36.3145 269.327 29.949 270.276 24.0902 272.686C18.2314 275.096 13.058 278.895 9.02358 283.749C5.01495 288.47 2.22385 294.086 0.890845 300.114C-0.44216 306.143 -0.277082 312.402 1.37185 318.353C41.0713 460.05 225.647 462.85 233.494 462.85H233.727C241.515 462.85 426.169 460.05 465.869 318.353C467.508 312.4 467.667 306.141 466.331 300.114C464.995 294.087 462.204 288.471 458.198 283.749ZM155.73 153.89C155.73 102.641 220.332 43.456 220.721 43.1278C213.615 61.2019 169.223 171.269 214.141 173.2C219.304 173.2 224.257 171.165 227.908 167.544C231.559 163.923 233.611 159.011 233.611 153.89C235.08 119.546 243.399 85.8311 258.084 54.6944C285.946 84.2387 311.491 118.244 311.491 153.89C311.491 174.375 303.286 194.021 288.68 208.507C274.075 222.992 254.266 231.13 233.611 231.13C212.955 231.13 193.146 222.992 178.541 208.507C163.936 194.021 155.73 174.375 155.73 153.89ZM39.0269 308.37C74.1068 311.188 107.815 323.14 136.744 343.02C165.674 362.899 188.799 390 203.782 421.584C155.166 414.903 62.2742 391.403 39.0269 308.37ZM263.692 421.545C278.798 390.05 301.929 363.009 330.8 343.096C359.671 323.183 393.282 311.086 428.311 308.003C405.064 391.074 312.386 414.787 263.692 421.545Z" fill="white"/>
<path d="M315.321 726H146.986C124.672 725.973 103.279 717.17 87.5006 701.521C71.722 685.873 62.8457 664.655 62.819 642.525L62.8191 590.774C62.684 588.242 62.0308 585.764 60.8992 583.491C59.7677 581.218 58.1815 579.197 56.2372 577.551C46.0089 568.205 38.2809 556.486 33.7474 543.445C29.2139 530.405 28.0166 516.453 30.2632 502.841C37.2659 459.784 77.1278 433.072 134.227 433.072H346.43C366.692 432.87 386.378 439.752 402.034 452.51C417.69 465.268 428.315 483.087 432.045 502.841C434.292 516.465 433.091 530.429 428.548 543.479C424.005 556.529 416.264 568.254 406.02 577.601C404.088 579.243 402.513 581.257 401.39 583.522C400.267 585.786 399.62 588.254 399.489 590.774L399.489 642.525C399.462 664.655 390.586 685.873 374.807 701.521C359.029 717.17 337.636 725.973 315.321 726ZM134.227 466.462C93.5909 466.462 67.8186 481.671 63.5261 508.2C62.1086 516.366 62.7908 524.755 65.5095 532.59C68.2283 540.426 72.8959 547.454 79.0802 553.026C84.4736 557.768 88.8081 563.575 91.8055 570.075C94.803 576.576 96.3973 583.626 96.4861 590.774L96.486 642.525C96.486 655.808 101.807 668.547 111.277 677.94C120.748 687.333 133.593 692.61 146.986 692.61H315.321C328.715 692.61 341.56 687.333 351.031 677.94C360.501 668.547 365.822 655.808 365.822 642.525L365.822 590.774C365.899 583.624 367.488 576.57 370.486 570.068C373.485 563.566 377.825 557.76 383.228 553.026C389.414 547.455 394.084 540.427 396.805 532.592C399.527 524.757 400.212 516.367 398.799 508.2C396.404 496.249 389.844 485.517 380.268 477.885C370.692 470.253 358.712 466.209 346.43 466.462H134.227Z" fill="white"/>
<path d="M264.023 503.168C251.958 503.223 240.382 507.945 231.723 516.347C223.064 507.946 211.488 503.223 199.423 503.168C171.803 504.125 150.148 527.224 150.973 554.848C150.973 587.148 183.936 620.466 211.6 642.704C223.376 652.082 240.07 652.082 251.846 642.704C279.511 620.465 312.473 587.148 312.473 554.848C313.298 527.224 291.644 504.125 264.023 503.168ZM231.819 617.511C201.877 593.447 183.272 569.383 183.272 554.849C182.466 545.064 189.653 536.44 199.423 535.469C209.192 536.44 216.379 545.064 215.573 554.849C215.573 563.768 222.803 570.999 231.723 570.999C240.642 570.999 247.873 563.769 247.873 554.849C247.068 545.064 254.254 536.44 264.024 535.469C273.793 536.44 280.98 545.064 280.174 554.849C280.172 569.383 261.568 593.447 231.819 617.511Z" fill="white"/>
</svg>
