<svg width="21" height="27" viewBox="0 0 21 27" fill="none" xmlns="http://www.w3.org/2000/svg">
<path d="M20.625 27.0007H18.375V21.3273C18.3741 20.4453 18.0233 19.5997 17.3997 18.976C16.776 18.3524 15.9304 18.0016 15.0484 18.0007H5.95162C5.06962 18.0016 4.224 18.3524 3.60033 18.976C2.97666 19.5997 2.62589 20.4453 2.625 21.3273V27.0007H0.375V21.3273C0.376786 19.8489 0.964895 18.4315 2.01033 17.386C3.05576 16.3406 4.47316 15.7525 5.95162 15.7507H15.0484C16.5268 15.7525 17.9442 16.3406 18.9897 17.386C20.0351 18.4315 20.6232 19.8489 20.625 21.3273V27.0007Z" fill="#A3A3A3"/>
<path d="M10.5 13.4999C9.16498 13.4999 7.85994 13.1041 6.7499 12.3624C5.63987 11.6207 4.77471 10.5665 4.26382 9.33306C3.75292 8.09965 3.61925 6.74245 3.8797 5.43308C4.14015 4.12371 4.78303 2.92098 5.72703 1.97697C6.67104 1.03297 7.87377 0.390092 9.18314 0.129641C10.4925 -0.130809 11.8497 0.00286365 13.0831 0.513755C14.3165 1.02465 15.3707 1.88981 16.1124 2.99984C16.8541 4.10987 17.25 5.41492 17.25 6.74994C17.2482 8.53961 16.5365 10.2555 15.271 11.5209C14.0055 12.7864 12.2897 13.4982 10.5 13.4999V13.4999ZM10.5 2.24994C9.60999 2.24994 8.73996 2.51386 7.99994 3.00833C7.25992 3.5028 6.68314 4.2056 6.34255 5.02787C6.00195 5.85013 5.91284 6.75493 6.08647 7.62785C6.2601 8.50076 6.68869 9.30259 7.31802 9.93192C7.94736 10.5613 8.74918 10.9898 9.6221 11.1635C10.495 11.3371 11.3998 11.248 12.2221 10.9074C13.0443 10.5668 13.7472 9.99003 14.2416 9.25001C14.7361 8.50999 15 7.63996 15 6.74994C15 5.55647 14.5259 4.41188 13.682 3.56796C12.8381 2.72405 11.6935 2.24994 10.5 2.24994Z" fill="#A3A3A3"/>
</svg>
