<svg width="1024" height="1024" viewBox="0 0 1024 1024" fill="none" xmlns="http://www.w3.org/2000/svg">
<g clip-path="url(#clip0_80_65)">
<rect width="1024" height="1024" fill="black"/>
<rect width="1024" height="1024" fill="#A3A3A3"/>
<g clip-path="url(#clip1_80_65)">
<mask id="mask0_80_65" style="mask-type:luminance" maskUnits="userSpaceOnUse" x="204" y="205" width="615" height="615">
<path d="M819 205H204V820H819V205Z" fill="white"/>
</mask>
<g mask="url(#mask0_80_65)">
<path d="M807.087 582.341C801.78 575.894 794.971 570.851 787.261 567.653C779.55 564.452 771.171 563.197 762.858 563.991C718.212 567.522 674.875 580.768 635.884 602.803C596.89 624.838 563.186 655.126 537.128 691.552V561.454C572.915 555.376 605.4 536.841 628.845 509.13C652.291 481.417 665.186 446.311 665.253 410.012C665.253 338.441 615.463 277.992 566.75 228.305C551.982 213.874 532.154 205.795 511.503 205.795C490.854 205.795 471.025 213.874 456.256 228.305C407.543 277.992 357.754 338.441 357.754 410.012C357.821 446.311 370.716 481.417 394.162 509.13C417.607 536.841 450.092 555.376 485.878 561.454V691.552C459.821 655.126 426.116 624.838 387.124 602.803C348.132 580.768 304.796 567.522 260.148 563.991C251.837 563.202 243.46 564.46 235.749 567.658C228.038 570.856 221.229 575.899 215.919 582.341C210.643 588.604 206.97 596.058 205.215 604.056C203.461 612.056 203.678 620.363 205.848 628.261C258.098 816.295 501.022 820.013 511.349 820.013H511.656C521.906 820.013 764.934 816.295 817.183 628.261C819.341 620.361 819.551 612.053 817.793 604.056C816.033 596.058 812.361 588.606 807.087 582.341ZM409.004 410.012C409.004 342.003 494.026 263.462 494.539 263.027C485.186 287.012 426.762 433.074 485.878 435.637C492.676 435.637 499.192 432.937 503.997 428.131C508.804 423.326 511.503 416.808 511.503 410.012C513.437 364.436 524.387 319.695 543.713 278.376C580.383 317.582 614.003 362.708 614.003 410.012C614.003 437.196 603.204 463.267 583.983 482.491C564.759 501.712 538.688 512.513 511.503 512.513C484.32 512.513 458.248 501.712 439.025 482.491C419.803 463.267 409.004 437.196 409.004 410.012ZM255.407 615.013C301.577 618.752 345.941 634.613 384.015 660.994C422.09 687.373 452.526 723.337 472.245 765.252C408.26 756.386 286.004 725.198 255.407 615.013ZM551.093 765.201C570.976 723.404 601.421 687.519 639.417 661.094C677.414 634.67 721.651 618.616 767.753 614.526C737.156 724.765 615.181 756.23 551.093 765.201Z" fill="white"/>
</g>
</g>
</g>
<defs>
<clipPath id="clip0_80_65">
<rect width="1024" height="1024" fill="white"/>
</clipPath>
<clipPath id="clip1_80_65">
<rect width="615" height="615" fill="white" transform="translate(204 205)"/>
</clipPath>
</defs>
</svg>
