<svg width="27" height="27" viewBox="0 0 27 27" fill="none" xmlns="http://www.w3.org/2000/svg">
<g clip-path="url(#clip0_65_38)">
<path d="M23.625 27.0006H21.375V21.3272C21.3741 20.4452 21.0233 19.5996 20.3997 18.9759C19.776 18.3523 18.9304 18.0015 18.0484 18.0006H8.95162C8.06962 18.0015 7.224 18.3523 6.60033 18.9759C5.97666 19.5996 5.62589 20.4452 5.625 21.3272V27.0006H3.375V21.3272C3.37679 19.8488 3.9649 18.4314 5.01033 17.3859C6.05576 16.3405 7.47316 15.7524 8.95162 15.7506H18.0484C19.5268 15.7524 20.9442 16.3405 21.9897 17.3859C23.0351 18.4314 23.6232 19.8488 23.625 21.3272V27.0006Z" fill="#72B43F"/>
<path d="M13.5 13.4999C12.165 13.4999 10.8599 13.104 9.7499 12.3623C8.63987 11.6206 7.77471 10.5664 7.26382 9.33299C6.75292 8.09959 6.61925 6.74239 6.8797 5.43302C7.14015 4.12365 7.78303 2.92091 8.72703 1.97691C9.67104 1.03291 10.8738 0.390031 12.1831 0.12958C13.4925 -0.13087 14.8497 0.00280261 16.0831 0.513694C17.3165 1.02459 18.3707 1.88975 19.1124 2.99978C19.8541 4.10981 20.25 5.41486 20.25 6.74988C20.2482 8.53954 19.5365 10.2554 18.271 11.5209C17.0055 12.7864 15.2897 13.4981 13.5 13.4999ZM13.5 2.24988C12.61 2.24988 11.74 2.5138 10.9999 3.00827C10.2599 3.50273 9.68314 4.20554 9.34255 5.02781C9.00195 5.85007 8.91284 6.75487 9.08647 7.62779C9.2601 8.5007 9.68869 9.30253 10.318 9.93186C10.9474 10.5612 11.7492 10.9898 12.6221 11.1634C13.495 11.337 14.3998 11.2479 15.2221 10.9073C16.0443 10.5667 16.7472 9.98997 17.2416 9.24995C17.7361 8.50993 18 7.6399 18 6.74988C18 5.55641 17.5259 4.41181 16.682 3.5679C15.8381 2.72399 14.6935 2.24988 13.5 2.24988Z" fill="#72B43F"/>
</g>
<defs>
<clipPath id="clip0_65_38">
<rect width="27" height="27" fill="white"/>
</clipPath>
</defs>
</svg>
