<svg width="27" height="27" viewBox="0 0 27 27" fill="none" xmlns="http://www.w3.org/2000/svg">
<g clip-path="url(#clip0_65_21)">
<path d="M7.875 6.75033H25.875C26.1734 6.75033 26.4595 6.6318 26.6705 6.42083C26.8815 6.20985 27 5.9237 27 5.62533C27 5.32697 26.8815 5.04082 26.6705 4.82984C26.4595 4.61886 26.1734 4.50034 25.875 4.50034H7.875C7.57663 4.50034 7.29048 4.61886 7.07951 4.82984C6.86853 5.04082 6.75 5.32697 6.75 5.62533C6.75 5.9237 6.86853 6.20985 7.07951 6.42083C7.29048 6.6318 7.57663 6.75033 7.875 6.75033Z" fill="#878787"/>
<path d="M7.875 6.75033H25.875C26.1734 6.75033 26.4595 6.6318 26.6705 6.42083C26.8815 6.20985 27 5.9237 27 5.62533C27 5.32697 26.8815 5.04082 26.6705 4.82984C26.4595 4.61886 26.1734 4.50034 25.875 4.50034H7.875C7.57663 4.50034 7.29048 4.61886 7.07951 4.82984C6.86853 5.04082 6.75 5.32697 6.75 5.62533C6.75 5.9237 6.86853 6.20985 7.07951 6.42083C7.29048 6.6318 7.57663 6.75033 7.875 6.75033Z" fill="#A3A3A3"/>
<path d="M25.875 12.3747H7.875C7.57663 12.3747 7.29048 12.4932 7.07951 12.7042C6.86853 12.9152 6.75 13.2013 6.75 13.4997C6.75 13.798 6.86853 14.0842 7.07951 14.2952C7.29048 14.5062 7.57663 14.6247 7.875 14.6247H25.875C26.1734 14.6247 26.4595 14.5062 26.6705 14.2952C26.8815 14.0842 27 13.798 27 13.4997C27 13.2013 26.8815 12.9152 26.6705 12.7042C26.4595 12.4932 26.1734 12.3747 25.875 12.3747Z" fill="#878787"/>
<path d="M25.875 12.3747H7.875C7.57663 12.3747 7.29048 12.4932 7.07951 12.7042C6.86853 12.9152 6.75 13.2013 6.75 13.4997C6.75 13.798 6.86853 14.0842 7.07951 14.2952C7.29048 14.5062 7.57663 14.6247 7.875 14.6247H25.875C26.1734 14.6247 26.4595 14.5062 26.6705 14.2952C26.8815 14.0842 27 13.798 27 13.4997C27 13.2013 26.8815 12.9152 26.6705 12.7042C26.4595 12.4932 26.1734 12.3747 25.875 12.3747Z" fill="#A3A3A3"/>
<path d="M25.875 20.25H7.875C7.57663 20.25 7.29048 20.3685 7.07951 20.5795C6.86853 20.7905 6.75 21.0766 6.75 21.375C6.75 21.6734 6.86853 21.9595 7.07951 22.1705C7.29048 22.3815 7.57663 22.5 7.875 22.5H25.875C26.1734 22.5 26.4595 22.3815 26.6705 22.1705C26.8815 21.9595 27 21.6734 27 21.375C27 21.0766 26.8815 20.7905 26.6705 20.5795C26.4595 20.3685 26.1734 20.25 25.875 20.25Z" fill="#878787"/>
<path d="M25.875 20.25H7.875C7.57663 20.25 7.29048 20.3685 7.07951 20.5795C6.86853 20.7905 6.75 21.0766 6.75 21.375C6.75 21.6734 6.86853 21.9595 7.07951 22.1705C7.29048 22.3815 7.57663 22.5 7.875 22.5H25.875C26.1734 22.5 26.4595 22.3815 26.6705 22.1705C26.8815 21.9595 27 21.6734 27 21.375C27 21.0766 26.8815 20.7905 26.6705 20.5795C26.4595 20.3685 26.1734 20.25 25.875 20.25Z" fill="#A3A3A3"/>
<path d="M2.25 7.87499C3.49264 7.87499 4.5 6.86763 4.5 5.625C4.5 4.38236 3.49264 3.375 2.25 3.375C1.00736 3.375 0 4.38236 0 5.625C0 6.86763 1.00736 7.87499 2.25 7.87499Z" fill="#878787"/>
<path d="M2.25 7.87499C3.49264 7.87499 4.5 6.86763 4.5 5.625C4.5 4.38236 3.49264 3.375 2.25 3.375C1.00736 3.375 0 4.38236 0 5.625C0 6.86763 1.00736 7.87499 2.25 7.87499Z" fill="#A3A3A3"/>
<path d="M2.25 15.7503C3.49264 15.7503 4.5 14.743 4.5 13.5003C4.5 12.2577 3.49264 11.2503 2.25 11.2503C1.00736 11.2503 0 12.2577 0 13.5003C0 14.743 1.00736 15.7503 2.25 15.7503Z" fill="#878787"/>
<path d="M2.25 15.7503C3.49264 15.7503 4.5 14.743 4.5 13.5003C4.5 12.2577 3.49264 11.2503 2.25 11.2503C1.00736 11.2503 0 12.2577 0 13.5003C0 14.743 1.00736 15.7503 2.25 15.7503Z" fill="#A3A3A3"/>
<path d="M2.25 23.6246C3.49264 23.6246 4.5 22.6173 4.5 21.3746C4.5 20.132 3.49264 19.1246 2.25 19.1246C1.00736 19.1246 0 20.132 0 21.3746C0 22.6173 1.00736 23.6246 2.25 23.6246Z" fill="#878787"/>
<path d="M2.25 23.6246C3.49264 23.6246 4.5 22.6173 4.5 21.3746C4.5 20.132 3.49264 19.1246 2.25 19.1246C1.00736 19.1246 0 20.132 0 21.3746C0 22.6173 1.00736 23.6246 2.25 23.6246Z" fill="#A3A3A3"/>
</g>
<defs>
<clipPath id="clip0_65_21">
<rect width="27" height="27" fill="white"/>
</clipPath>
</defs>
</svg>
