<svg width="27" height="27" viewBox="0 0 27 27" fill="none" xmlns="http://www.w3.org/2000/svg">
<path d="M25.7254 15.7498C23.5752 15.6641 21.4371 16.1103 19.5008 17.049C17.5644 17.9876 15.8896 19.3896 14.625 21.1307V15.6587C16.1969 15.3895 17.6233 14.5739 18.6525 13.3556C19.6816 12.1372 20.2474 10.5946 20.25 8.99978C20.25 5.84978 18.063 3.1959 15.9255 1.01228C15.2773 0.377861 14.4064 0.022583 13.4994 0.022583C12.5925 0.022583 11.7216 0.377861 11.0734 1.01228C8.93588 3.19028 6.75 5.84978 6.75 8.99978C6.75126 10.5956 7.31644 12.1396 8.34571 13.359C9.37498 14.5785 10.8021 15.395 12.375 15.6643V21.1363C11.111 19.3942 9.43648 17.9911 7.50008 17.0514C5.56369 16.1118 3.42528 15.6647 1.27463 15.7498H0L0.158625 17.0165C1.044 24.113 7.71637 26.5239 12.0982 26.9447C13.0314 27.0155 13.9686 27.0155 14.9018 26.9447C19.2836 26.525 25.9549 24.1142 26.8414 17.0165L27 15.7498H25.7254ZM2.65613 18.0684C4.64783 18.2079 6.56218 18.8954 8.1876 20.0549C9.81303 21.2143 11.0862 22.8006 11.8665 24.6384C9.18225 24.293 4.03312 22.988 2.65613 18.0684ZM9 8.99978C9 6.66428 11.0363 4.30178 12.8565 2.44215C11.9044 4.89791 11.3616 7.49327 11.25 10.1248H13.5C13.6122 7.77096 14.1034 5.45065 14.9546 3.25328C16.5487 4.96215 18 6.93203 18 8.99978C18 10.1933 17.5259 11.3378 16.682 12.1818C15.8381 13.0257 14.6935 13.4998 13.5 13.4998C12.3065 13.4998 11.1619 13.0257 10.318 12.1818C9.47411 11.3378 9 10.1933 9 8.99978ZM15.1335 24.6373C15.914 22.7996 17.1872 21.2135 18.8126 20.054C20.438 18.8946 22.3522 18.207 24.3439 18.0673C22.9669 22.988 17.8177 24.293 15.1335 24.6373Z" fill="#72B43F"/>
</svg>
