<svg width="27" height="27" viewBox="0 0 27 27" fill="none" xmlns="http://www.w3.org/2000/svg">
<g clip-path="url(#clip0_128_311)">
<path d="M7.875 6.75024H25.875C26.1734 6.75024 26.4595 6.63171 26.6705 6.42074C26.8815 6.20976 27 5.92361 27 5.62524C27 5.32687 26.8815 5.04073 26.6705 4.82975C26.4595 4.61877 26.1734 4.50024 25.875 4.50024H7.875C7.57663 4.50024 7.29048 4.61877 7.07951 4.82975C6.86853 5.04073 6.75 5.32687 6.75 5.62524C6.75 5.92361 6.86853 6.20976 7.07951 6.42074C7.29048 6.63171 7.57663 6.75024 7.875 6.75024Z" fill="#A3A3A3"/>
<path d="M25.875 12.3748H7.875C7.57663 12.3748 7.29048 12.4933 7.07951 12.7043C6.86853 12.9152 6.75 13.2014 6.75 13.4998C6.75 13.7981 6.86853 14.0843 7.07951 14.2953C7.29048 14.5062 7.57663 14.6248 7.875 14.6248H25.875C26.1734 14.6248 26.4595 14.5062 26.6705 14.2953C26.8815 14.0843 27 13.7981 27 13.4998C27 13.2014 26.8815 12.9152 26.6705 12.7043C26.4595 12.4933 26.1734 12.3748 25.875 12.3748Z" fill="#A3A3A3"/>
<path d="M25.875 20.25H7.875C7.57663 20.25 7.29048 20.3685 7.07951 20.5795C6.86853 20.7905 6.75 21.0766 6.75 21.375C6.75 21.6734 6.86853 21.9595 7.07951 22.1705C7.29048 22.3815 7.57663 22.5 7.875 22.5H25.875C26.1734 22.5 26.4595 22.3815 26.6705 22.1705C26.8815 21.9595 27 21.6734 27 21.375C27 21.0766 26.8815 20.7905 26.6705 20.5795C26.4595 20.3685 26.1734 20.25 25.875 20.25Z" fill="#A3A3A3"/>
<path d="M2.25 7.87499C3.49264 7.87499 4.5 6.86763 4.5 5.625C4.5 4.38236 3.49264 3.375 2.25 3.375C1.00736 3.375 0 4.38236 0 5.625C0 6.86763 1.00736 7.87499 2.25 7.87499Z" fill="#A3A3A3"/>
<path d="M2.25 15.7502C3.49264 15.7502 4.5 14.7429 4.5 13.5002C4.5 12.2576 3.49264 11.2502 2.25 11.2502C1.00736 11.2502 0 12.2576 0 13.5002C0 14.7429 1.00736 15.7502 2.25 15.7502Z" fill="#A3A3A3"/>
<path d="M2.25 23.6247C3.49264 23.6247 4.5 22.6174 4.5 21.3748C4.5 20.1321 3.49264 19.1248 2.25 19.1248C1.00736 19.1248 0 20.1321 0 21.3748C0 22.6174 1.00736 23.6247 2.25 23.6247Z" fill="#A3A3A3"/>
</g>
<defs>
<clipPath id="clip0_128_311">
<rect width="27" height="27" fill="white"/>
</clipPath>
</defs>
</svg>
