<svg width="25" height="27" viewBox="0 0 25 27" fill="none" xmlns="http://www.w3.org/2000/svg">
<g clip-path="url(#clip0_128_309)">
<path d="M23.8198 15.7497C21.8289 15.6639 19.8492 16.1102 18.0563 17.0488C16.2633 17.9875 14.7126 19.3895 13.5417 21.1305V15.6585C14.9972 15.3894 16.3179 14.5737 17.2708 13.3554C18.2237 12.1371 18.7476 10.5945 18.75 8.99966C18.75 5.84966 16.725 3.19578 14.7458 1.01216C14.1457 0.377739 13.3393 0.0224609 12.4995 0.0224609C11.6597 0.0224609 10.8533 0.377739 10.2531 1.01216C8.27396 3.19016 6.25 5.84966 6.25 8.99966C6.25117 10.5954 6.77448 12.1394 7.72751 13.3589C8.68053 14.5784 10.0019 15.3949 11.4583 15.6642V21.1362C10.2879 19.3941 8.73748 17.991 6.94452 17.0513C5.15156 16.1117 3.17156 15.6646 1.18021 15.7497H0L0.146875 17.0164C0.966667 24.1129 7.14479 26.5238 11.2021 26.9445C12.0661 27.0154 12.9339 27.0154 13.7979 26.9445C17.8552 26.5249 24.0323 24.114 24.8531 17.0164L25 15.7497H23.8198ZM2.45937 18.0683C4.30354 18.2078 6.07609 18.8953 7.58111 20.0547C9.08614 21.2142 10.265 22.8005 10.9875 24.6383C8.50208 24.2929 3.73437 22.9879 2.45937 18.0683ZM8.33333 8.99966C8.33333 6.66416 10.2188 4.30166 11.9042 2.44203C11.0225 4.89779 10.52 7.49315 10.4167 10.1247H12.5C12.6039 7.77084 13.0587 5.45053 13.8469 3.25316C15.3229 4.96203 16.6667 6.93191 16.6667 8.99966C16.6667 10.1931 16.2277 11.3377 15.4463 12.1816C14.6649 13.0256 13.6051 13.4997 12.5 13.4997C11.3949 13.4997 10.3351 13.0256 9.55372 12.1816C8.77232 11.3377 8.33333 10.1931 8.33333 8.99966V8.99966ZM14.0125 24.6372C14.7352 22.7995 15.9141 21.2133 17.4191 20.0539C18.9241 18.8945 20.6965 18.2069 22.5406 18.0672C21.2656 22.9879 16.4979 24.2929 14.0125 24.6372Z" fill="#A3A3A3"/>
</g>
<defs>
<clipPath id="clip0_128_309">
<rect width="25" height="27" fill="white"/>
</clipPath>
</defs>
</svg>
