<svg width="45" height="71" viewBox="0 0 45 71" fill="none" xmlns="http://www.w3.org/2000/svg">
<path d="M22.4348 0L42.3961 41.535H2.47355L22.4348 0Z" fill="#A3A3A3"/>
<path d="M44.0435 49.7C44.0435 61.4637 34.369 71 22.4348 71C10.5007 71 0.826111 61.4637 0.826111 49.7C0.826111 37.9363 10.5007 28.4 22.4348 28.4C34.369 28.4 44.0435 37.9363 44.0435 49.7Z" fill="#A3A3A3"/>
<path d="M22.4649 58.9898C20.8089 58.9898 19.3297 58.7044 18.0274 58.1337C16.7332 57.5629 15.7082 56.7711 14.9525 55.7582C14.2049 54.7372 13.803 53.5555 13.7467 52.213H17.533C17.5813 52.9445 17.8265 53.5796 18.2686 54.1182C18.7188 54.6488 19.3056 55.0588 20.0291 55.3482C20.7526 55.6376 21.5565 55.7823 22.4408 55.7823C23.4135 55.7823 24.2737 55.6135 25.0213 55.2758C25.777 54.9382 26.3678 54.4679 26.7939 53.865C27.22 53.254 27.433 52.5506 27.433 51.7548C27.433 50.9268 27.22 50.1992 26.7939 49.5722C26.3759 48.9371 25.7609 48.4387 24.949 48.0769C24.1451 47.7152 23.1724 47.5343 22.0308 47.5343H19.9447V44.4956H22.0308C22.9473 44.4956 23.7512 44.3308 24.4425 44.0012C25.1419 43.6716 25.6885 43.2134 26.0825 42.6265C26.4764 42.0317 26.6733 41.3363 26.6733 40.5404C26.6733 39.7767 26.5005 39.1135 26.1548 38.5508C25.8172 37.98 25.3348 37.5339 24.7078 37.2123C24.0888 36.8907 23.3573 36.73 22.5132 36.73C21.7093 36.73 20.9576 36.8787 20.2582 37.1761C19.5669 37.4655 19.0042 37.8836 18.5701 38.4302C18.136 38.9688 17.9028 39.616 17.8707 40.3716H14.2652C14.3054 39.0371 14.6993 37.8635 15.4469 36.8506C16.2026 35.8376 17.1994 35.0458 18.4374 34.475C19.6754 33.9043 21.0501 33.6189 22.5614 33.6189C24.1451 33.6189 25.5117 33.9284 26.6613 34.5474C27.8189 35.1584 28.7112 35.9743 29.3382 36.9953C29.9733 38.0162 30.2868 39.1336 30.2788 40.3475C30.2868 41.7302 29.901 42.9039 29.1212 43.8686C28.3494 44.8332 27.3205 45.4804 26.0342 45.81V46.0029C27.6742 46.2521 28.9443 46.9033 29.8447 47.9564C30.7531 49.0095 31.2033 50.3158 31.1952 51.8754C31.2033 53.2339 30.8254 54.4518 30.0617 55.5291C29.3061 56.6063 28.2731 57.4544 26.9627 58.0734C25.6524 58.6843 24.1531 58.9898 22.4649 58.9898Z" fill="white"/>
</svg>
