<svg width="26" height="27" viewBox="0 0 26 27" fill="none" xmlns="http://www.w3.org/2000/svg">
<g clip-path="url(#clip0_128_323)">
<path d="M22.75 27.0007H20.5833V21.3274C20.5825 20.4454 20.2447 19.5997 19.6441 18.9761C19.0435 18.3524 18.2292 18.0016 17.3799 18.0007H8.62007C7.77073 18.0016 6.95643 18.3524 6.35586 18.9761C5.75529 19.5997 5.41751 20.4454 5.41665 21.3274V27.0007H3.24998V21.3274C3.2517 19.8489 3.81803 18.4315 4.82475 17.3861C5.83146 16.3406 7.19636 15.7525 8.62007 15.7507H17.3799C18.8036 15.7525 20.1685 16.3406 21.1752 17.3861C22.1819 18.4315 22.7483 19.8489 22.75 21.3274V27.0007Z" fill="#59CA00"/>
<path d="M12.9999 13.5C11.7143 13.5 10.4576 13.1041 9.38872 12.3624C8.3198 11.6207 7.48668 10.5665 6.99471 9.33312C6.50274 8.09972 6.37402 6.74252 6.62482 5.43314C6.87563 4.12377 7.49469 2.92104 8.40373 1.97703C9.31277 1.03303 10.471 0.390153 11.7318 0.129702C12.9927 -0.130748 14.2996 0.00292468 15.4874 0.513816C16.6751 1.02471 17.6903 1.88987 18.4045 2.9999C19.1187 4.10994 19.4999 5.41498 19.4999 6.75C19.4982 8.53967 18.8128 10.2555 17.5942 11.521C16.3756 12.7865 14.7233 13.4982 12.9999 13.5V13.5ZM12.9999 2.25C12.1429 2.25 11.3051 2.51392 10.5925 3.00839C9.87984 3.50286 9.32443 4.20566 8.99645 5.02793C8.66847 5.8502 8.58265 6.755 8.74986 7.62791C8.91706 8.50082 9.32977 9.30265 9.9358 9.93198C10.5418 10.5613 11.314 10.9899 12.1545 11.1635C12.9951 11.3372 13.8664 11.2481 14.6582 10.9075C15.45 10.5669 16.1268 9.99009 16.603 9.25007C17.0791 8.51005 17.3333 7.64002 17.3333 6.75C17.3333 5.55653 16.8767 4.41194 16.0641 3.56802C15.2514 2.72411 14.1492 2.25 12.9999 2.25Z" fill="#59CA00"/>
</g>
<defs>
<clipPath id="clip0_128_323">
<rect width="26" height="27" fill="white"/>
</clipPath>
</defs>
</svg>
